<svg version="1.1" xmlns="http://www.w3.org/2000/svg" viewBox="0 0 355.9430609809027 100.579833984375" width="355.9430609809027" height="100.579833984375" filter="invert(93%) hue-rotate(180deg)">
  <!-- svg-source:excalidraw -->
  
  <defs>
    <style class="style-fonts">
      @font-face {
        font-family: "Virgil";
        src: url("https://excalidraw.com/Virgil.woff2");
      }
      @font-face {
        font-family: "Cascadia";
        src: url("https://excalidraw.com/Cascadia.woff2");
      }
      @font-face {
        font-family: "Assistant";
        src: url("https://excalidraw.com/Assistant-Regular.woff2");
      }
    </style>
    
  </defs>
  <rect x="0" y="0" width="355.9430609809027" height="100.579833984375" fill="#ffffff"></rect><g stroke-linecap="round" transform="translate(10 10) rotate(0 41.38746897379559 38.903952704535584)"><path d="M19.45 0 C32.74 0.23, 43.06 1.8, 63.32 0 M19.45 0 C34.59 -0.97, 48.45 -0.68, 63.32 0 M63.32 0 C74.95 1.08, 81.99 4.53, 82.77 19.45 M63.32 0 C78.36 0.03, 84.61 6.51, 82.77 19.45 M82.77 19.45 C82.7 31.93, 84.67 41.74, 82.77 58.36 M82.77 19.45 C82.42 34.36, 82.97 50.57, 82.77 58.36 M82.77 58.36 C81.99 72.43, 74.32 78.85, 63.32 77.81 M82.77 58.36 C82.97 70.65, 75.03 77.96, 63.32 77.81 M63.32 77.81 C51.26 79.22, 40.24 78.48, 19.45 77.81 M63.32 77.81 C48.02 77.58, 31 77.05, 19.45 77.81 M19.45 77.81 C7.42 77.81, -0.15 73.29, 0 58.36 M19.45 77.81 C6.6 75.6, -1.16 72.71, 0 58.36 M0 58.36 C1.75 48.05, 1.11 36.62, 0 19.45 M0 58.36 C0.35 48.75, -0.78 38.73, 0 19.45 M0 19.45 C0.03 7.02, 4.95 -0.99, 19.45 0 M0 19.45 C-1.24 6.12, 7.37 -1.92, 19.45 0" stroke="#1e1e1e" stroke-width="1" fill="none"></path></g><g transform="translate(18.727503458658816 23.903952704535584) rotate(0 32.65996551513672 25)"><text x="32.65996551513672" y="17.52" font-family="Virgil, Segoe UI Emoji" font-size="20px" fill="#1e1e1e" text-anchor="middle" style="white-space: pre;" direction="ltr" dominant-baseline="alphabetic">spark</text><text x="32.65996551513672" y="42.519999999999996" font-family="Virgil, Segoe UI Emoji" font-size="20px" fill="#1e1e1e" text-anchor="middle" style="white-space: pre;" direction="ltr" dominant-baseline="alphabetic">memory</text></g><g stroke-linecap="round" transform="translate(138.89166090223523 10.306786431206547) rotate(0 41.38746897379559 38.903952704535584)"><path d="M19.45 0 C34.31 0.54, 50.13 0.25, 63.32 0 M19.45 0 C31.13 -0.04, 41.9 -1.02, 63.32 0 M63.32 0 C75.53 0.46, 84.46 7.79, 82.77 19.45 M63.32 0 C77.85 1.17, 83.97 6.65, 82.77 19.45 M82.77 19.45 C82.87 26.05, 83.47 36.29, 82.77 58.36 M82.77 19.45 C84.03 32.9, 83.05 44.8, 82.77 58.36 M82.77 58.36 C84.13 72.21, 74.88 78.58, 63.32 77.81 M82.77 58.36 C83.23 71.26, 74.56 78.99, 63.32 77.81 M63.32 77.81 C45.42 77.89, 31.58 76.65, 19.45 77.81 M63.32 77.81 C46.95 76.87, 30.83 78.66, 19.45 77.81 M19.45 77.81 C7.34 76.72, -0.75 69.37, 0 58.36 M19.45 77.81 C8.63 79.65, -0.72 71.62, 0 58.36 M0 58.36 C-1.24 42.29, -1.31 30.13, 0 19.45 M0 58.36 C0.2 49.95, 0.45 41.57, 0 19.45 M0 19.45 C-1.05 7.33, 4.79 1.03, 19.45 0 M0 19.45 C-0.17 8.15, 5.56 -1.34, 19.45 0" stroke="#1e1e1e" stroke-width="1" fill="none"></path></g><g transform="translate(147.61916436089416 24.21073913574213) rotate(0 32.65996551513672 25)"><text x="32.65996551513672" y="17.52" font-family="Virgil, Segoe UI Emoji" font-size="20px" fill="#1e1e1e" text-anchor="middle" style="white-space: pre;" direction="ltr" dominant-baseline="alphabetic">arrow</text><text x="32.65996551513672" y="42.519999999999996" font-family="Virgil, Segoe UI Emoji" font-size="20px" fill="#1e1e1e" text-anchor="middle" style="white-space: pre;" direction="ltr" dominant-baseline="alphabetic">memory</text></g><g stroke-linecap="round" transform="translate(263.16812303331153 12.771928575303832) rotate(0 41.38746897379559 38.903952704535584)"><path d="M19.45 0 C30.83 0.19, 45.65 -0.34, 63.32 0 M19.45 0 C31.46 -0.51, 43.11 0.86, 63.32 0 M63.32 0 C77.75 -1.86, 83.19 6.63, 82.77 19.45 M63.32 0 C74.35 -0.06, 81.76 6.41, 82.77 19.45 M82.77 19.45 C83.34 29.3, 81.93 42.67, 82.77 58.36 M82.77 19.45 C83.53 34, 81.88 48.31, 82.77 58.36 M82.77 58.36 C82.13 71.54, 75.55 77.12, 63.32 77.81 M82.77 58.36 C83.36 69.7, 74.01 78.35, 63.32 77.81 M63.32 77.81 C45.61 77.49, 29.34 79.39, 19.45 77.81 M63.32 77.81 C48.24 76.83, 30.78 76.82, 19.45 77.81 M19.45 77.81 C7.27 76.96, -0.31 70.21, 0 58.36 M19.45 77.81 C7.23 77.64, -0.54 69.66, 0 58.36 M0 58.36 C-1.87 43.1, 0.87 32.79, 0 19.45 M0 58.36 C-0.19 43.71, -0.04 30.04, 0 19.45 M0 19.45 C1.5 6.2, 7.37 -0.82, 19.45 0 M0 19.45 C-0.72 8.37, 6.19 -0.42, 19.45 0" stroke="#1e1e1e" stroke-width="1" fill="none"></path></g><g transform="translate(270.4956173366969 26.675881279839416) rotate(0 34.059974670410156 25)"><text x="34.059974670410156" y="17.52" font-family="Virgil, Segoe UI Emoji" font-size="20px" fill="#1e1e1e" text-anchor="middle" style="white-space: pre;" direction="ltr" dominant-baseline="alphabetic">pandas</text><text x="34.059974670410156" y="42.519999999999996" font-family="Virgil, Segoe UI Emoji" font-size="20px" fill="#1e1e1e" text-anchor="middle" style="white-space: pre;" direction="ltr" dominant-baseline="alphabetic">memory</text></g><g stroke-linecap="round"><g transform="translate(96.87736511230469 48.860575358072936) rotate(0 22.16816372341583 -0.5126444498698106)"><path d="M0.15 -0.03 C7.53 -0.28, 37.32 -1.33, 44.77 -1.53 M-0.44 -0.52 C6.86 -0.72, 37.03 -1.05, 44.56 -1.09" stroke="#1e1e1e" stroke-width="1" fill="none"></path></g><g transform="translate(96.87736511230469 48.860575358072936) rotate(0 22.16816372341583 -0.5126444498698106)"><path d="M23.79 6.68 C31.82 4.41, 39.05 1.5, 44.56 -1.09 M23.79 6.68 C28.95 4.55, 34.6 2.42, 44.56 -1.09" stroke="#1e1e1e" stroke-width="1" fill="none"></path></g><g transform="translate(96.87736511230469 48.860575358072936) rotate(0 22.16816372341583 -0.5126444498698106)"><path d="M23.65 -8.49 C31.73 -4.85, 39.01 -1.86, 44.56 -1.09 M23.65 -8.49 C28.88 -6.75, 34.57 -5.01, 44.56 -1.09" stroke="#1e1e1e" stroke-width="1" fill="none"></path></g></g><mask></mask><g stroke-linecap="round"><g transform="translate(224.0064239501952 48.09882269965277) rotate(0 19.449776543511348 0.17016940646701073)"><path d="M-0.28 0.16 C6.16 0.26, 32.44 0.67, 38.92 0.63 M0.58 -0.23 C6.92 -0.3, 31.97 -0.27, 38.49 -0.19" stroke="#1e1e1e" stroke-width="1" fill="none"></path></g><g transform="translate(224.0064239501952 48.09882269965277) rotate(0 19.449776543511348 0.17016940646701073)"><path d="M20.18 6.35 C26.89 4.13, 33.54 1.21, 38.49 -0.19 M20.18 6.35 C24.05 4.93, 28.34 3.69, 38.49 -0.19" stroke="#1e1e1e" stroke-width="1" fill="none"></path></g><g transform="translate(224.0064239501952 48.09882269965277) rotate(0 19.449776543511348 0.17016940646701073)"><path d="M20.26 -6.95 C26.95 -4.5, 33.57 -2.75, 38.49 -0.19 M20.26 -6.95 C24.13 -5.43, 28.4 -3.74, 38.49 -0.19" stroke="#1e1e1e" stroke-width="1" fill="none"></path></g></g><mask></mask></svg>