<svg version="1.1" xmlns="http://www.w3.org/2000/svg" viewBox="0 0 231.6665988498264 105.30678643120655" width="231.6665988498264" height="105.30678643120655" filter="invert(93%) hue-rotate(180deg)">
  <!-- svg-source:excalidraw -->
  
  <defs>
    <style class="style-fonts">
      @font-face {
        font-family: "Virgil";
        src: url("https://excalidraw.com/Virgil.woff2");
      }
      @font-face {
        font-family: "Cascadia";
        src: url("https://excalidraw.com/Cascadia.woff2");
      }
      @font-face {
        font-family: "Assistant";
        src: url("https://excalidraw.com/Assistant-Regular.woff2");
      }
    </style>
    
  </defs>
  <rect x="0" y="0" width="231.6665988498264" height="105.30678643120655" fill="#ffffff"></rect><g stroke-linecap="round" transform="translate(10 10) rotate(0 41.38746897379559 38.903952704535584)"><path d="M19.45 0 C32.74 0.23, 43.06 1.8, 63.32 0 M19.45 0 C34.59 -0.97, 48.45 -0.68, 63.32 0 M63.32 0 C74.95 1.08, 81.99 4.53, 82.77 19.45 M63.32 0 C78.36 0.03, 84.61 6.51, 82.77 19.45 M82.77 19.45 C82.7 31.93, 84.67 41.74, 82.77 58.36 M82.77 19.45 C82.42 34.36, 82.97 50.57, 82.77 58.36 M82.77 58.36 C81.99 72.43, 74.32 78.85, 63.32 77.81 M82.77 58.36 C82.97 70.65, 75.03 77.96, 63.32 77.81 M63.32 77.81 C51.26 79.22, 40.24 78.48, 19.45 77.81 M63.32 77.81 C48.02 77.58, 31 77.05, 19.45 77.81 M19.45 77.81 C7.42 77.81, -0.15 73.29, 0 58.36 M19.45 77.81 C6.6 75.6, -1.16 72.71, 0 58.36 M0 58.36 C1.75 48.05, 1.11 36.62, 0 19.45 M0 58.36 C0.35 48.75, -0.78 38.73, 0 19.45 M0 19.45 C0.03 7.02, 4.95 -0.99, 19.45 0 M0 19.45 C-1.24 6.12, 7.37 -1.92, 19.45 0" stroke="#1e1e1e" stroke-width="1" fill="none"></path></g><g transform="translate(18.727503458658816 23.903952704535584) rotate(0 32.65996551513672 25)"><text x="32.65996551513672" y="17.52" font-family="Virgil, Segoe UI Emoji" font-size="20px" fill="#1e1e1e" text-anchor="middle" style="white-space: pre;" direction="ltr" dominant-baseline="alphabetic">spark</text><text x="32.65996551513672" y="42.519999999999996" font-family="Virgil, Segoe UI Emoji" font-size="20px" fill="#1e1e1e" text-anchor="middle" style="white-space: pre;" direction="ltr" dominant-baseline="alphabetic">memory</text></g><g stroke-linecap="round" transform="translate(138.89166090223523 10.306786431206547) rotate(0 41.38746897379559 42.5)"><path d="M20.69 0 C34.71 0.55, 49.68 0.26, 62.08 0 M20.69 0 C31.73 -0.04, 41.87 -1.02, 62.08 0 M62.08 0 C75.12 0.46, 84.46 8.2, 82.77 20.69 M62.08 0 C77.44 1.17, 83.97 7.06, 82.77 20.69 M82.77 20.69 C82.9 28.31, 83.5 39.57, 82.77 64.31 M82.77 20.69 C84.08 35.68, 83.09 49.12, 82.77 64.31 M82.77 64.31 C84.13 78.99, 74.47 85.77, 62.08 85 M82.77 64.31 C83.23 78.03, 74.15 86.19, 62.08 85 M62.08 85 C45.1 85.08, 32.18 83.84, 20.69 85 M62.08 85 C46.64 84.06, 31.45 85.86, 20.69 85 M20.69 85 C7.75 83.91, -0.75 76.15, 0 64.31 M20.69 85 C9.05 86.84, -0.72 78.4, 0 64.31 M0 64.31 C-1.21 46.54, -1.29 32.67, 0 20.69 M0 64.31 C0.19 54.93, 0.45 45.59, 0 20.69 M0 20.69 C-1.05 7.75, 5.2 1.03, 20.69 0 M0 20.69 C-0.17 8.56, 5.97 -1.34, 20.69 0" stroke="#1e1e1e" stroke-width="1" fill="none"></path></g><g transform="translate(145.779160393609 15.306786431206547) rotate(0 34.499969482421875 37.5)"><text x="34.499969482421875" y="17.52" font-family="Virgil, Segoe UI Emoji" font-size="20px" fill="#1e1e1e" text-anchor="middle" style="white-space: pre;" direction="ltr" dominant-baseline="alphabetic">polars/</text><text x="34.499969482421875" y="42.519999999999996" font-family="Virgil, Segoe UI Emoji" font-size="20px" fill="#1e1e1e" text-anchor="middle" style="white-space: pre;" direction="ltr" dominant-baseline="alphabetic">arrow</text><text x="34.499969482421875" y="67.52" font-family="Virgil, Segoe UI Emoji" font-size="20px" fill="#1e1e1e" text-anchor="middle" style="white-space: pre;" direction="ltr" dominant-baseline="alphabetic">memory</text></g><g stroke-linecap="round"><g transform="translate(96.87736511230469 48.860575358072936) rotate(0 22.16816372341583 -0.5126444498698106)"><path d="M0.15 -0.03 C7.53 -0.28, 37.32 -1.33, 44.77 -1.53 M-0.44 -0.52 C6.86 -0.72, 37.03 -1.05, 44.56 -1.09" stroke="#1e1e1e" stroke-width="1" fill="none"></path></g><g transform="translate(96.87736511230469 48.860575358072936) rotate(0 22.16816372341583 -0.5126444498698106)"><path d="M23.79 6.68 C31.82 4.41, 39.05 1.5, 44.56 -1.09 M23.79 6.68 C28.95 4.55, 34.6 2.42, 44.56 -1.09" stroke="#1e1e1e" stroke-width="1" fill="none"></path></g><g transform="translate(96.87736511230469 48.860575358072936) rotate(0 22.16816372341583 -0.5126444498698106)"><path d="M23.65 -8.49 C31.73 -4.85, 39.01 -1.86, 44.56 -1.09 M23.65 -8.49 C28.88 -6.75, 34.57 -5.01, 44.56 -1.09" stroke="#1e1e1e" stroke-width="1" fill="none"></path></g></g><mask></mask></svg>